<?xml version="1.0" encoding="utf-8"?>
<!-- Generator: Adobe Illustrator 21.0.2, SVG Export Plug-In . SVG Version: 6.00 Build 0)  -->
<svg version="1.1" id="Capa_1" xmlns="http://www.w3.org/2000/svg" xmlns:xlink="http://www.w3.org/1999/xlink" x="0px" y="0px"
	 viewBox="0 0 45 60" style="enable-background:new 0 0 45 60;" xml:space="preserve">
<style type="text/css">
	.st0{opacity:0.6;fill:#003E5F;enable-background:new    ;}
	.st1{fill:#FFFFFF;}
</style>
<path class="st0" d="M693,60c-1.7,0-3-1.3-3-3V3c0-1.7,1.3-3,3-3h42v60H693z M42,60H0V0h42c1.7,0,3,1.3,3,3v54
	C45,58.7,43.7,60,42,60z"/>
<path class="st1" d="M723.1,33.5l-9.7,9.4c-0.1,0.1-0.2,0.2-0.4,0.2c-0.5,0-2,0.1-2-1.1c0-0.8,1.3-2.6,1.7-2.9l7.2-6.9h-16.4
	c-0.8,0-1.5-0.7-1.5-1.5s0.7-1.5,1.5-1.5h16.4l-7.2-6.9c-0.4-0.4-1.7-2.1-1.7-2.9c0-1.2,1.4-1.1,2-1.1c0.1,0,0.3,0.1,0.4,0.2
	l9.7,9.4c0.5,0.5,1.9,1.5,1.9,2.7v0.4C725,31.9,723.7,32.9,723.1,33.5z M16.1,32l7.2,6.9c0.4,0.4,1.7,2.1,1.7,2.9
	c0,1.2-1.4,1.1-2,1.1c-0.1,0-0.3-0.1-0.4-0.2l-9.7-9.4c-0.5-0.5-1.9-1.5-1.9-2.7v-0.4c0-1.2,1.3-2.2,1.9-2.7l9.7-9.4
	c0.1-0.1,0.2-0.2,0.4-0.2c0.5,0,2-0.1,2,1.1c0,0.8-1.3,2.6-1.7,2.9L16.1,29h16.4c0.8,0,1.5,0.7,1.5,1.5S33.3,32,32.5,32H16.1z"/>
</svg>
