<svg 
 xmlns="http://www.w3.org/2000/svg"
 xmlns:xlink="http://www.w3.org/1999/xlink"
 width="17px" height="16px">
<path fill-rule="evenodd"  fill="rgb(0, 62, 95)"
 d="M9.477,14.957 L9.477,3.542 L14.175,8.585 C14.424,8.858 15.611,9.740 16.181,9.740 C17.000,9.740 16.953,8.739 16.953,8.365 C16.953,8.263 16.917,8.178 16.846,8.093 L10.471,1.311 C10.114,0.937 9.438,0.004 8.618,0.004 L8.333,0.004 C7.514,0.004 6.837,0.937 6.481,1.311 L0.106,8.093 C0.034,8.178 -0.001,8.263 -0.001,8.365 C-0.001,8.739 -0.048,9.740 0.771,9.740 C1.341,9.740 2.528,8.858 2.777,8.585 L7.437,3.582 L7.437,14.957 C7.437,15.533 7.894,16.000 8.458,16.000 C9.021,16.000 9.477,15.533 9.477,14.957 Z"/>
</svg>