<svg 
 xmlns="http://www.w3.org/2000/svg"
 xmlns:xlink="http://www.w3.org/1999/xlink"
 width="17px" height="16px">
<path fill-rule="evenodd"  fill="rgb(0, 62, 95)"
 d="M9.477,1.043 L9.477,12.458 L14.175,7.414 C14.424,7.143 15.611,6.260 16.181,6.260 C17.000,6.260 16.953,7.261 16.953,7.635 C16.953,7.737 16.917,7.822 16.846,7.907 L10.471,14.689 C10.114,15.063 9.438,15.996 8.618,15.996 L8.333,15.996 C7.514,15.996 6.837,15.063 6.481,14.689 L0.106,7.907 C0.034,7.822 -0.001,7.737 -0.001,7.635 C-0.001,7.261 -0.048,6.260 0.771,6.260 C1.341,6.260 2.528,7.143 2.777,7.414 L7.437,12.418 L7.437,1.043 C7.437,0.467 7.894,-0.000 8.458,-0.000 C9.021,-0.000 9.477,0.467 9.477,1.043 Z"/>
</svg>