<svg 
 xmlns="http://www.w3.org/2000/svg"
 xmlns:xlink="http://www.w3.org/1999/xlink"
 width="96px" height="96px">
<path fill-rule="evenodd"  fill="rgb(255, 255, 255)"
 d="M48.000,-0.000 C74.510,-0.000 96.000,21.490 96.000,48.000 C96.000,74.510 74.510,96.000 48.000,96.000 C21.490,96.000 0.000,74.510 0.000,48.000 C0.000,21.490 21.490,-0.000 48.000,-0.000 Z"/>
<path fill-rule="evenodd"  fill="rgb(32, 145, 186)"
 d="M68.453,56.368 C67.829,58.692 66.663,60.800 65.082,62.464 C63.941,63.664 62.648,64.572 61.270,65.149 C59.562,68.750 56.235,71.631 52.442,71.631 C51.253,71.631 49.633,71.343 48.016,70.152 C46.392,71.424 44.740,71.732 43.521,71.732 C39.693,71.732 36.369,68.726 34.680,65.148 C33.303,64.571 32.011,63.664 30.871,62.464 C29.289,60.800 28.123,58.692 27.499,56.369 C26.704,53.407 26.891,50.404 27.968,47.948 C26.891,45.493 26.704,42.489 27.499,39.528 C28.123,37.205 29.289,35.097 30.871,33.432 C32.011,32.232 33.304,31.324 34.682,30.748 C36.515,26.893 40.077,24.322 43.799,24.322 C45.294,24.322 46.667,24.734 47.873,25.485 C49.061,24.693 50.446,24.268 51.936,24.268 C54.046,24.268 56.236,25.133 58.103,26.703 C59.412,27.804 60.497,29.201 61.254,30.741 C62.638,31.317 63.937,32.227 65.082,33.432 C66.663,35.097 67.829,37.205 68.453,39.528 C69.249,42.489 69.062,45.493 67.984,47.948 C69.062,50.403 69.249,53.407 68.453,56.368 ZM46.500,28.551 C43.500,26.586 39.850,28.408 38.019,31.931 C41.110,32.363 43.113,34.634 43.213,34.745 C43.722,35.304 43.681,36.170 43.122,36.679 C42.564,37.187 41.700,37.148 41.191,36.592 C41.155,36.553 39.168,34.456 36.642,34.607 C34.498,34.737 31.824,36.627 30.806,40.416 C30.029,43.307 30.501,46.072 31.848,47.852 C31.833,47.884 31.832,47.916 31.842,47.948 C31.832,47.981 31.834,48.013 31.849,48.045 C30.501,49.824 30.031,52.589 30.807,55.480 C31.460,57.909 32.860,59.925 34.546,61.154 C35.373,61.573 36.039,61.558 36.519,61.108 C37.356,60.323 37.692,58.238 36.656,55.920 C36.347,55.230 36.669,54.419 37.359,54.110 C38.050,53.802 38.885,54.111 39.194,54.802 C40.577,57.895 40.559,61.921 37.838,63.603 C39.528,67.270 43.500,69.971 46.500,67.110 L46.500,28.551 ZM52.842,47.811 C55.190,45.806 56.182,43.623 55.790,41.325 C55.500,39.623 54.554,38.461 54.544,38.450 C54.057,37.871 54.132,37.007 54.710,36.520 C55.289,36.033 56.153,36.108 56.640,36.686 C56.698,36.755 58.072,38.410 58.490,40.864 C58.643,41.762 58.670,42.837 58.421,44.013 C60.626,47.226 63.041,47.619 64.718,46.815 C65.560,45.086 65.747,42.794 65.108,40.416 C64.126,36.759 61.413,34.035 58.610,33.529 C57.180,29.055 52.500,26.306 49.500,28.414 L49.500,67.072 C50.500,67.862 51.416,68.207 52.365,68.207 C54.946,68.207 57.628,65.674 58.687,62.367 C61.490,61.862 64.164,59.138 65.147,55.480 C65.719,53.349 65.613,51.287 64.978,49.637 C62.074,50.472 59.312,49.262 57.235,46.928 C56.628,47.903 55.782,48.902 54.620,49.894 C54.044,50.385 53.180,50.317 52.689,49.741 C52.198,49.166 52.266,48.302 52.842,47.811 ZM56.163,54.585 C57.496,53.324 59.026,52.674 60.473,52.754 C61.228,52.796 61.806,53.443 61.764,54.198 C61.722,54.953 61.074,55.531 60.320,55.489 C59.643,55.454 58.814,55.847 58.045,56.574 C57.057,57.509 56.467,58.705 56.467,59.323 C56.467,60.079 55.854,60.692 55.097,60.692 L55.097,60.692 C54.341,60.692 53.728,60.079 53.728,59.322 C53.728,57.843 54.684,55.984 56.163,54.585 ZM41.599,53.662 C39.903,51.609 39.787,49.203 39.964,47.607 C37.868,47.305 36.155,46.130 34.951,44.146 C33.868,42.363 33.599,40.525 33.588,40.448 C33.483,39.699 34.004,39.006 34.753,38.900 C35.500,38.796 36.192,39.314 36.300,40.060 C36.305,40.092 36.524,41.492 37.331,42.787 C38.313,44.365 39.685,45.066 41.522,44.930 C41.982,44.895 42.427,45.095 42.708,45.460 C42.989,45.825 43.068,46.306 42.918,46.742 C42.910,46.765 41.937,49.771 43.711,51.918 C44.192,52.501 44.110,53.364 43.527,53.846 C42.944,54.328 42.081,54.245 41.599,53.662 Z"/>
</svg>