<svg 
 xmlns="http://www.w3.org/2000/svg"
 xmlns:xlink="http://www.w3.org/1999/xlink"
 width="96px" height="96px">
<path fill-rule="evenodd"  fill="rgb(255, 255, 255)"
 d="M48.000,-0.000 C74.510,-0.000 96.000,21.490 96.000,48.000 C96.000,74.510 74.510,96.000 48.000,96.000 C21.490,96.000 -0.000,74.510 -0.000,48.000 C-0.000,21.490 21.490,-0.000 48.000,-0.000 Z"/>
<path fill-rule="evenodd"  fill="rgb(32, 145, 186)"
 d="M56.914,73.846 L39.086,73.846 C36.416,73.845 34.254,71.682 34.253,69.013 L34.253,33.928 C34.254,31.258 36.416,29.096 39.086,29.095 L40.709,29.095 L40.709,25.702 C40.710,23.742 42.296,22.155 44.256,22.154 L51.744,22.154 C53.703,22.155 55.290,23.741 55.291,25.702 L55.291,29.095 L56.914,29.095 C59.584,29.096 61.746,31.258 61.747,33.928 L61.747,69.013 C61.746,71.683 59.584,73.845 56.914,73.846 ZM51.788,25.702 C51.788,25.678 51.767,25.657 51.744,25.657 L44.256,25.657 C44.232,25.657 44.212,25.678 44.212,25.702 L44.212,29.095 L51.788,29.095 L51.788,25.702 ZM58.244,33.928 C58.243,33.194 57.648,32.600 56.914,32.598 L39.086,32.598 C38.352,32.600 37.757,33.194 37.756,33.928 L37.756,69.013 C37.757,69.746 38.352,70.341 39.086,70.343 L56.914,70.343 C57.648,70.341 58.243,69.746 58.244,69.013 L58.244,33.928 ZM40.221,61.020 L55.779,61.020 L55.779,67.877 L40.221,67.877 L40.221,61.020 Z"/>
</svg>