<?xml version="1.0" encoding="utf-8"?>
<!-- Generator: Adobe Illustrator 21.0.2, SVG Export Plug-In . SVG Version: 6.00 Build 0)  -->
<svg version="1.1" id="Capa_1" xmlns="http://www.w3.org/2000/svg" xmlns:xlink="http://www.w3.org/1999/xlink" x="0px" y="0px"
	 viewBox="0 0 128 128" style="enable-background:new 0 0 128 128;" xml:space="preserve">
<style type="text/css">
	.st0{fill:none;}
	.st1{fill:#68B9D5;}
</style>
<g id="_x31_28px_boxes">
	<rect class="st0" width="128" height="128"/>
</g>
<g id="Production">
	<g>
		<path class="st1" d="M87,38.2C86.8,22.8,76.5,13.1,64,13.1c-12.6,0-22.8,9.8-23.1,25.1L64,48.7L87,38.2z"/>
		<path class="st1" d="M107.5,59.1l4.2-22c0.3-1.8-1.4-4.6-4.2-3.3L64,53.6L20.4,33.8c-2.7-1.2-4.6,1.4-4.2,3.3l4.2,22
			c-8.9,4.4-6.2,18.4,3.9,20.1l3,15.3c0.2,0.9,0.7,1.7,1.5,2.1l33.7,18c0.8,0.4,1.8,0.5,2.8,0l33.7-18c0.8-0.4,1.4-1.2,1.5-2.1
			l3-15.3C113.7,77.5,116.4,63.5,107.5,59.1z M26.4,58.2l-3.2-16.5L61,58.8v48.1L32.9,92l-2.6-13.7C39.2,73.9,36.5,59.9,26.4,58.2z
			 M67,106.9V58.8l37.8-17.2l-3.2,16.5c-10.1,1.7-12.8,15.7-3.9,20.1L95.1,92L67,106.9z"/>
	</g>
</g>
</svg>
