<svg 
 xmlns="http://www.w3.org/2000/svg"
 xmlns:xlink="http://www.w3.org/1999/xlink"
 width="96px" height="96px">
<path fill-rule="evenodd"  fill="rgb(255, 255, 255)"
 d="M48.000,0.000 C74.510,0.000 96.000,21.490 96.000,48.000 C96.000,74.510 74.510,96.000 48.000,96.000 C21.490,96.000 -0.000,74.510 -0.000,48.000 C-0.000,21.490 21.490,0.000 48.000,0.000 Z"/>
<path fill-rule="evenodd"  fill="rgb(32, 145, 186)"
 d="M70.733,56.855 L59.607,64.105 C59.070,64.453 58.423,63.793 58.807,63.257 L62.282,58.401 L58.414,58.401 C57.933,58.401 57.654,57.897 57.936,57.506 L62.642,51.021 C62.791,50.815 63.031,50.693 63.285,50.693 L68.355,50.693 C68.854,50.693 69.127,51.187 68.809,51.572 L65.285,55.743 L70.412,55.743 C70.998,55.743 71.225,56.535 70.733,56.855 ZM56.484,50.264 C57.924,53.308 55.034,54.555 53.520,53.268 C53.057,55.952 51.287,58.779 51.069,62.123 L57.996,69.231 C60.788,72.095 56.668,75.655 54.017,73.126 L46.262,65.169 C45.767,64.661 45.484,63.984 45.471,63.275 L45.321,55.575 L39.985,61.888 L39.985,71.214 C39.985,74.932 34.423,74.932 34.423,71.214 L34.423,60.871 C34.423,60.347 34.570,59.834 34.848,59.390 L41.107,49.384 C40.223,46.298 39.552,41.982 40.670,37.763 C37.462,36.689 35.025,35.766 33.226,33.294 C31.675,31.179 30.589,28.574 30.076,26.655 C29.447,24.303 32.563,22.843 33.967,24.815 C35.292,26.676 36.299,28.912 37.930,30.713 C41.483,34.682 67.163,35.929 58.984,47.490 C58.081,48.761 57.463,49.344 56.484,50.264 ZM55.749,43.270 C54.567,42.117 51.757,41.193 50.998,40.934 C49.402,43.717 50.945,46.090 52.335,48.383 C52.602,47.795 56.353,44.312 55.749,43.270 ZM49.472,33.119 C46.406,33.119 43.920,30.627 43.920,27.554 C43.920,24.481 46.406,21.990 49.472,21.990 C52.538,21.990 55.024,24.481 55.024,27.554 C55.024,30.627 52.538,33.119 49.472,33.119 Z"/>
</svg>