<svg 
 xmlns="http://www.w3.org/2000/svg"
 xmlns:xlink="http://www.w3.org/1999/xlink"
 width="96px" height="96px">
<path fill-rule="evenodd"  fill="rgb(255, 255, 255)"
 d="M48.000,-0.000 C74.510,-0.000 96.000,21.490 96.000,48.000 C96.000,74.510 74.510,96.000 48.000,96.000 C21.490,96.000 -0.000,74.510 -0.000,48.000 C-0.000,21.490 21.490,-0.000 48.000,-0.000 Z"/>
<path fill-rule="evenodd"  fill="rgb(32, 145, 186)"
 d="M60.661,50.301 L60.661,73.481 C60.661,75.545 57.568,75.545 57.568,73.481 L57.568,49.878 C52.571,48.677 50.121,46.088 48.035,42.704 C43.168,50.074 46.617,55.652 51.974,71.137 C53.251,74.830 47.680,76.705 46.418,73.059 C46.418,73.059 39.196,52.168 39.176,52.093 C37.516,47.047 37.067,39.992 42.405,33.823 C47.510,28.691 50.308,35.674 51.003,37.105 C54.400,44.206 56.432,44.800 61.752,47.111 C63.401,47.724 63.190,50.363 60.661,50.301 ZM51.356,31.948 C48.189,31.948 45.621,29.380 45.621,26.213 C45.621,23.047 48.189,20.479 51.356,20.479 C54.522,20.479 57.090,23.047 57.090,26.213 C57.090,29.380 54.522,31.948 51.356,31.948 ZM41.666,65.775 L39.597,72.915 C38.562,76.489 32.837,75.127 33.951,71.280 L38.334,56.146 L41.666,65.775 Z"/>
</svg>